<mxfile host="Electron" agent="Mozilla/5.0 (Windows NT 10.0; Win64; x64) AppleWebKit/537.36 (KHTML, like Gecko) draw.io/24.7.5 Chrome/126.0.6478.183 Electron/31.3.0 Safari/537.36" version="24.7.5">
  <diagram name="PÃ¡gina-1" id="PdVg9PEbLtLcCObalXmS">
    <mxGraphModel dx="1434" dy="844" grid="0" gridSize="10" guides="1" tooltips="1" connect="1" arrows="1" fold="1" page="1" pageScale="1" pageWidth="827" pageHeight="1169" math="0" shadow="0">
      <root>
        <mxCell id="0" />
        <mxCell id="1" parent="0" />
        <mxCell id="txLwmG_dUHK_povSf7ob-5" value="Vehiculo" style="swimlane;fontStyle=1;align=center;verticalAlign=top;childLayout=stackLayout;horizontal=1;startSize=26;horizontalStack=0;resizeParent=1;resizeParentMax=0;resizeLast=0;collapsible=1;marginBottom=0;whiteSpace=wrap;html=1;" vertex="1" parent="1">
          <mxGeometry x="334" y="40" width="160" height="190" as="geometry" />
        </mxCell>
        <mxCell id="txLwmG_dUHK_povSf7ob-6" value="- Asientos: entero&lt;div&gt;- Potencia: entero&lt;/div&gt;&lt;div&gt;- Nombre: cadena&lt;/div&gt;" style="text;strokeColor=none;fillColor=none;align=left;verticalAlign=top;spacingLeft=4;spacingRight=4;overflow=hidden;rotatable=0;points=[[0,0.5],[1,0.5]];portConstraint=eastwest;whiteSpace=wrap;html=1;" vertex="1" parent="txLwmG_dUHK_povSf7ob-5">
          <mxGeometry y="26" width="160" height="64" as="geometry" />
        </mxCell>
        <mxCell id="txLwmG_dUHK_povSf7ob-7" value="" style="line;strokeWidth=1;fillColor=none;align=left;verticalAlign=middle;spacingTop=-1;spacingLeft=3;spacingRight=3;rotatable=0;labelPosition=right;points=[];portConstraint=eastwest;strokeColor=inherit;" vertex="1" parent="txLwmG_dUHK_povSf7ob-5">
          <mxGeometry y="90" width="160" height="8" as="geometry" />
        </mxCell>
        <mxCell id="txLwmG_dUHK_povSf7ob-8" value="+ CrearVehiculo()&lt;div&gt;+ polimorfismo()&lt;/div&gt;&lt;div&gt;+ getAsientos()&lt;/div&gt;&lt;div&gt;+ getPotencia()&lt;/div&gt;&lt;div&gt;+ getNombre()&lt;/div&gt;" style="text;strokeColor=none;fillColor=none;align=left;verticalAlign=top;spacingLeft=4;spacingRight=4;overflow=hidden;rotatable=0;points=[[0,0.5],[1,0.5]];portConstraint=eastwest;whiteSpace=wrap;html=1;" vertex="1" parent="txLwmG_dUHK_povSf7ob-5">
          <mxGeometry y="98" width="160" height="92" as="geometry" />
        </mxCell>
        <mxCell id="txLwmG_dUHK_povSf7ob-9" value="Electrico" style="swimlane;fontStyle=1;align=center;verticalAlign=top;childLayout=stackLayout;horizontal=1;startSize=26;horizontalStack=0;resizeParent=1;resizeParentMax=0;resizeLast=0;collapsible=1;marginBottom=0;whiteSpace=wrap;html=1;" vertex="1" parent="1">
          <mxGeometry x="174" y="320" width="160" height="112" as="geometry" />
        </mxCell>
        <mxCell id="txLwmG_dUHK_povSf7ob-10" value="- Bateria: float" style="text;strokeColor=none;fillColor=none;align=left;verticalAlign=top;spacingLeft=4;spacingRight=4;overflow=hidden;rotatable=0;points=[[0,0.5],[1,0.5]];portConstraint=eastwest;whiteSpace=wrap;html=1;" vertex="1" parent="txLwmG_dUHK_povSf7ob-9">
          <mxGeometry y="26" width="160" height="26" as="geometry" />
        </mxCell>
        <mxCell id="txLwmG_dUHK_povSf7ob-11" value="" style="line;strokeWidth=1;fillColor=none;align=left;verticalAlign=middle;spacingTop=-1;spacingLeft=3;spacingRight=3;rotatable=0;labelPosition=right;points=[];portConstraint=eastwest;strokeColor=inherit;" vertex="1" parent="txLwmG_dUHK_povSf7ob-9">
          <mxGeometry y="52" width="160" height="8" as="geometry" />
        </mxCell>
        <mxCell id="txLwmG_dUHK_povSf7ob-12" value="+ crearElectrico()&lt;div&gt;+ getBateria()&lt;/div&gt;" style="text;strokeColor=none;fillColor=none;align=left;verticalAlign=top;spacingLeft=4;spacingRight=4;overflow=hidden;rotatable=0;points=[[0,0.5],[1,0.5]];portConstraint=eastwest;whiteSpace=wrap;html=1;" vertex="1" parent="txLwmG_dUHK_povSf7ob-9">
          <mxGeometry y="60" width="160" height="52" as="geometry" />
        </mxCell>
        <mxCell id="txLwmG_dUHK_povSf7ob-13" style="edgeStyle=orthogonalEdgeStyle;rounded=0;orthogonalLoop=1;jettySize=auto;html=1;entryX=0.169;entryY=1;entryDx=0;entryDy=0;entryPerimeter=0;endArrow=block;endFill=0;" edge="1" parent="1" source="txLwmG_dUHK_povSf7ob-9" target="txLwmG_dUHK_povSf7ob-8">
          <mxGeometry relative="1" as="geometry">
            <Array as="points">
              <mxPoint x="254" y="275" />
              <mxPoint x="361" y="275" />
            </Array>
          </mxGeometry>
        </mxCell>
        <mxCell id="txLwmG_dUHK_povSf7ob-14" value="Combustion" style="swimlane;fontStyle=1;align=center;verticalAlign=top;childLayout=stackLayout;horizontal=1;startSize=26;horizontalStack=0;resizeParent=1;resizeParentMax=0;resizeLast=0;collapsible=1;marginBottom=0;whiteSpace=wrap;html=1;" vertex="1" parent="1">
          <mxGeometry x="494" y="320" width="160" height="112" as="geometry" />
        </mxCell>
        <mxCell id="txLwmG_dUHK_povSf7ob-15" value="- Combustible: int" style="text;strokeColor=none;fillColor=none;align=left;verticalAlign=top;spacingLeft=4;spacingRight=4;overflow=hidden;rotatable=0;points=[[0,0.5],[1,0.5]];portConstraint=eastwest;whiteSpace=wrap;html=1;" vertex="1" parent="txLwmG_dUHK_povSf7ob-14">
          <mxGeometry y="26" width="160" height="26" as="geometry" />
        </mxCell>
        <mxCell id="txLwmG_dUHK_povSf7ob-16" value="" style="line;strokeWidth=1;fillColor=none;align=left;verticalAlign=middle;spacingTop=-1;spacingLeft=3;spacingRight=3;rotatable=0;labelPosition=right;points=[];portConstraint=eastwest;strokeColor=inherit;" vertex="1" parent="txLwmG_dUHK_povSf7ob-14">
          <mxGeometry y="52" width="160" height="8" as="geometry" />
        </mxCell>
        <mxCell id="txLwmG_dUHK_povSf7ob-17" value="+ crearCombsution()&lt;div&gt;+ getCombustible()&lt;/div&gt;&lt;div&gt;+ polimorfismo()&lt;/div&gt;" style="text;strokeColor=none;fillColor=none;align=left;verticalAlign=top;spacingLeft=4;spacingRight=4;overflow=hidden;rotatable=0;points=[[0,0.5],[1,0.5]];portConstraint=eastwest;whiteSpace=wrap;html=1;" vertex="1" parent="txLwmG_dUHK_povSf7ob-14">
          <mxGeometry y="60" width="160" height="52" as="geometry" />
        </mxCell>
        <mxCell id="txLwmG_dUHK_povSf7ob-18" style="edgeStyle=orthogonalEdgeStyle;rounded=0;orthogonalLoop=1;jettySize=auto;html=1;entryX=0.835;entryY=0.997;entryDx=0;entryDy=0;entryPerimeter=0;endArrow=block;endFill=0;" edge="1" parent="1" source="txLwmG_dUHK_povSf7ob-14" target="txLwmG_dUHK_povSf7ob-8">
          <mxGeometry relative="1" as="geometry" />
        </mxCell>
        <mxCell id="txLwmG_dUHK_povSf7ob-19" value="Hibrido" style="swimlane;fontStyle=1;align=center;verticalAlign=top;childLayout=stackLayout;horizontal=1;startSize=26;horizontalStack=0;resizeParent=1;resizeParentMax=0;resizeLast=0;collapsible=1;marginBottom=0;whiteSpace=wrap;html=1;" vertex="1" parent="1">
          <mxGeometry x="334" y="492" width="160" height="112" as="geometry" />
        </mxCell>
        <mxCell id="txLwmG_dUHK_povSf7ob-20" value="- Autonomia : int" style="text;strokeColor=none;fillColor=none;align=left;verticalAlign=top;spacingLeft=4;spacingRight=4;overflow=hidden;rotatable=0;points=[[0,0.5],[1,0.5]];portConstraint=eastwest;whiteSpace=wrap;html=1;" vertex="1" parent="txLwmG_dUHK_povSf7ob-19">
          <mxGeometry y="26" width="160" height="26" as="geometry" />
        </mxCell>
        <mxCell id="txLwmG_dUHK_povSf7ob-21" value="" style="line;strokeWidth=1;fillColor=none;align=left;verticalAlign=middle;spacingTop=-1;spacingLeft=3;spacingRight=3;rotatable=0;labelPosition=right;points=[];portConstraint=eastwest;strokeColor=inherit;" vertex="1" parent="txLwmG_dUHK_povSf7ob-19">
          <mxGeometry y="52" width="160" height="8" as="geometry" />
        </mxCell>
        <mxCell id="txLwmG_dUHK_povSf7ob-22" value="+ CrearHibrido()&lt;div&gt;+ getAutonomia()&lt;/div&gt;" style="text;strokeColor=none;fillColor=none;align=left;verticalAlign=top;spacingLeft=4;spacingRight=4;overflow=hidden;rotatable=0;points=[[0,0.5],[1,0.5]];portConstraint=eastwest;whiteSpace=wrap;html=1;" vertex="1" parent="txLwmG_dUHK_povSf7ob-19">
          <mxGeometry y="60" width="160" height="52" as="geometry" />
        </mxCell>
        <mxCell id="txLwmG_dUHK_povSf7ob-23" style="edgeStyle=orthogonalEdgeStyle;rounded=0;orthogonalLoop=1;jettySize=auto;html=1;entryX=0.498;entryY=0.996;entryDx=0;entryDy=0;entryPerimeter=0;endArrow=block;endFill=0;" edge="1" parent="1" source="txLwmG_dUHK_povSf7ob-19" target="txLwmG_dUHK_povSf7ob-17">
          <mxGeometry relative="1" as="geometry" />
        </mxCell>
        <mxCell id="txLwmG_dUHK_povSf7ob-24" style="edgeStyle=orthogonalEdgeStyle;rounded=0;orthogonalLoop=1;jettySize=auto;html=1;entryX=0.486;entryY=1.009;entryDx=0;entryDy=0;entryPerimeter=0;endArrow=block;endFill=0;" edge="1" parent="1" source="txLwmG_dUHK_povSf7ob-19" target="txLwmG_dUHK_povSf7ob-12">
          <mxGeometry relative="1" as="geometry" />
        </mxCell>
      </root>
    </mxGraphModel>
  </diagram>
</mxfile>
